<svg width="266" height="264" viewBox="0 0 266 264" fill="none" xmlns="http://www.w3.org/2000/svg">
<path opacity="0.3" d="M238.953 173.724C234.758 176.419 232.66 177.766 231.684 179.899C230.707 182.032 231.058 184.5 231.759 189.436L234.222 206.781C235.428 215.272 236.031 219.518 233.638 222.274C231.246 225.03 226.958 225.03 218.381 225.03H201.153C196.162 225.03 193.666 225.03 191.691 226.299C189.715 227.568 188.677 229.837 186.602 234.377L179.379 250.172C175.8 258 174.011 261.913 170.499 262.939C166.987 263.964 163.373 261.628 156.144 256.957L141.684 247.612C137.468 244.888 135.36 243.525 133 243.525C130.64 243.525 128.532 244.888 124.316 247.612L109.856 256.957C102.627 261.628 99.0131 263.964 95.5013 262.939C91.9895 261.913 90.1999 258 86.6208 250.172L79.3981 234.377C77.3226 229.837 76.2848 227.568 74.3093 226.299C72.3337 225.03 69.8382 225.03 64.8471 225.03H47.6193C39.0423 225.03 34.7538 225.03 32.3616 222.274C29.9694 219.518 30.5724 215.272 31.7783 206.781L34.2413 189.436C34.9423 184.5 35.2927 182.032 34.3162 179.899C33.3396 177.766 31.2421 176.419 27.0471 173.724L12.474 164.364C5.27208 159.738 1.6711 157.425 1.14447 153.819C0.617845 150.214 3.40686 146.967 8.9849 140.475L20.4196 127.166C23.6509 123.405 25.2665 121.524 25.5968 119.213C25.927 116.902 24.9028 114.644 22.8543 110.129L15.6527 94.2542C12.1065 86.4373 10.3335 82.5289 11.8571 79.2107C13.3808 75.8925 17.5007 74.69 25.7405 72.285L42.2485 67.4667C47.0588 66.0627 49.4639 65.3607 51.0069 63.5799C52.5498 61.799 52.9021 59.3184 53.6066 54.3572L56.0511 37.1436C57.2615 28.6201 57.8667 24.3584 60.9439 22.3784C64.021 20.3984 68.1504 21.6136 76.4092 24.044L93.0358 28.937C97.8396 30.3507 100.241 31.0575 102.5 30.3925C104.759 29.7274 106.395 27.8318 109.666 24.0407L120.886 11.0381C126.52 4.50966 129.337 1.24546 133 1.24546C136.663 1.24546 139.48 4.50966 145.114 11.0381L156.334 24.0407C159.605 27.8318 161.241 29.7274 163.5 30.3925C165.759 31.0575 168.16 30.3507 172.964 28.937L189.591 24.044C197.85 21.6136 201.979 20.3984 205.056 22.3784C208.133 24.3584 208.738 28.6201 209.949 37.1436L212.393 54.3572C213.098 59.3184 213.45 61.799 214.993 63.5799C216.536 65.3607 218.941 66.0627 223.752 67.4667L240.259 72.285C248.499 74.69 252.619 75.8925 254.143 79.2107C255.667 82.5289 253.893 86.4373 250.347 94.2542L243.146 110.129C241.097 114.644 240.073 116.902 240.403 119.213C240.733 121.524 242.349 123.405 245.58 127.166L257.015 140.475C262.593 146.967 265.382 150.214 264.856 153.819C264.329 157.425 260.728 159.738 253.526 164.364L238.953 173.724Z" stroke="white" stroke-linecap="round" stroke-dasharray="3 3"/>
</svg>
