<svg width="70" height="70" viewBox="0 0 70 70" fill="none" xmlns="http://www.w3.org/2000/svg">
<path d="M35 0.999991C53.7777 0.99999 69 16.2223 69 35C69 53.7777 53.7777 69 35 69C16.2223 69 0.999999 53.7777 0.999998 35C0.999998 16.2223 16.2223 0.999992 35 0.999991Z" stroke="#202020" stroke-width="2"/>
<path d="M35.4615 26C36.6239 28.4624 38.4701 30.7514 41 32.8671L41 34.6879C38.812 33.6127 37.1709 32.6069 36.0769 31.6705L36.0769 44L33.9231 44L33.9231 31.6705C32.8291 32.6069 31.188 33.6127 29 34.6879L29 32.8671C31.4957 30.7514 33.3419 28.4624 34.5385 26L35.4615 26Z" fill="#202020"/>
</svg>
