<svg width="72" height="72" viewBox="0 0 72 72" fill="none" xmlns="http://www.w3.org/2000/svg">
<path d="M57.75 18H68C68.5523 18 69 18.4477 69 19V54V65.7919C69 65.8758 68.903 65.9224 68.8375 65.87L57.75 57H16C15.4477 57 15 56.5523 15 56V45" stroke="#F9D75E" stroke-width="2"/>
<path d="M56 6H3.99997C3.44769 6 2.99997 6.44772 2.99997 7V42V53.7919C2.99997 53.8758 3.09696 53.9224 3.16244 53.87L14.25 45H56C56.5523 45 57 44.5523 57 44V7C57 6.44772 56.5523 6 56 6Z" stroke="#131313" stroke-width="2"/>
</svg>
