<svg width="52" height="24" viewBox="0 0 52 24" fill="none" xmlns="http://www.w3.org/2000/svg">
<path d="M51.5 12C51.5 15.0011 48.8434 17.8768 44.1752 20.0313C39.5496 22.1662 33.1242 23.5 26 23.5C18.8758 23.5 12.4504 22.1662 7.82475 20.0313C3.15663 17.8768 0.5 15.0011 0.5 12C0.5 8.99888 3.15663 6.12322 7.82475 3.9687C12.4504 1.83378 18.8758 0.5 26 0.5C33.1242 0.5 39.5496 1.83378 44.1752 3.9687C48.8434 6.12322 51.5 8.99888 51.5 12Z" stroke="#202020"/>
<path d="M28.028 6.4V14.032H29.378V15.292H28.028V19H26.588V15.292H20.684V14.95L27.488 6.4H28.028ZM26.588 9.424L23.096 14.032H26.588V9.424Z" fill="#202020"/>
</svg>
