<svg width="52" height="24" viewBox="0 0 52 24" fill="none" xmlns="http://www.w3.org/2000/svg">
<path d="M51.5 12C51.5 15.0011 48.8434 17.8768 44.1752 20.0313C39.5496 22.1662 33.1242 23.5 26 23.5C18.8758 23.5 12.4504 22.1662 7.82475 20.0313C3.15663 17.8768 0.5 15.0011 0.5 12C0.5 8.99888 3.15663 6.12322 7.82475 3.9687C12.4504 1.83378 18.8758 0.5 26 0.5C33.1242 0.5 39.5496 1.83378 44.1752 3.9687C48.8434 6.12322 51.5 8.99888 51.5 12Z" stroke="#202020"/>
<path d="M26.77 6.274C27.886 6.274 28.828 6.646 29.596 7.39C30.376 8.122 30.766 8.992 30.766 10C30.766 10.78 30.538 11.518 30.082 12.214C29.638 12.898 28.786 13.942 27.526 15.346L25.42 17.722H30.766V19H22.9V18.55L26.104 14.842C26.284 14.626 26.536 14.338 26.86 13.978C27.184 13.606 27.412 13.342 27.544 13.186C27.676 13.03 27.856 12.82 28.084 12.556C28.312 12.28 28.468 12.082 28.552 11.962C28.636 11.83 28.738 11.662 28.858 11.458C28.99 11.254 29.08 11.086 29.128 10.954C29.176 10.822 29.218 10.672 29.254 10.504C29.29 10.336 29.308 10.168 29.308 10C29.308 9.244 29.056 8.65 28.552 8.218C28.048 7.774 27.454 7.552 26.77 7.552C26.11 7.552 25.528 7.78 25.024 8.236C24.532 8.68 24.286 9.298 24.286 10.09V10.396H22.828V10.09C22.828 9.034 23.2 8.134 23.944 7.39C24.7 6.646 25.642 6.274 26.77 6.274Z" fill="#202020"/>
</svg>
