<svg width="52" height="24" viewBox="0 0 52 24" fill="none" xmlns="http://www.w3.org/2000/svg">
<path d="M51.5 12C51.5 15.0011 48.8434 17.8768 44.1752 20.0313C39.5496 22.1662 33.1242 23.5 26 23.5C18.8758 23.5 12.4504 22.1662 7.82475 20.0313C3.15663 17.8768 0.5 15.0011 0.5 12C0.5 8.99888 3.15663 6.12322 7.82475 3.9687C12.4504 1.83378 18.8758 0.5 26 0.5C33.1242 0.5 39.5496 1.83378 44.1752 3.9687C48.8434 6.12322 51.5 8.99888 51.5 12Z" stroke="#202020"/>
<path d="M30.378 6.4L27.12 11.494C28.044 11.518 28.83 11.86 29.478 12.52C30.138 13.18 30.468 14.038 30.468 15.094C30.468 16.318 30.042 17.308 29.19 18.064C28.338 18.808 27.3 19.18 26.076 19.18C24.852 19.18 23.832 18.808 23.016 18.064C22.212 17.308 21.81 16.39 21.81 15.31L23.25 15.292C23.25 16.06 23.532 16.69 24.096 17.182C24.66 17.674 25.32 17.92 26.076 17.92C26.868 17.92 27.558 17.68 28.146 17.2C28.734 16.72 29.028 16.018 29.028 15.094C29.028 14.278 28.74 13.63 28.164 13.15C27.588 12.658 26.832 12.412 25.896 12.412C25.584 12.412 25.29 12.436 25.014 12.484L28.056 7.66H22.224V6.4H30.378Z" fill="#202020"/>
</svg>
