<svg width="24" height="24" viewBox="0 0 24 24" fill="none" xmlns="http://www.w3.org/2000/svg">
<g opacity="0.4">
<path d="M12 3.75C9.43359 3.75 7.09863 4.16016 5.32031 4.99219C3.54199 5.82422 2.25 7.20117 2.25 9V15.75C2.25 16.5117 2.63379 17.1973 3.1875 17.7422C3.74121 18.2871 4.46777 18.7354 5.34375 19.1016C7.09863 19.8311 9.43066 20.25 12 20.25C14.5693 20.25 16.9014 19.8311 18.6562 19.1016C19.5322 18.7354 20.2588 18.2871 20.8125 17.7422C21.3662 17.1973 21.75 16.5117 21.75 15.75V8.25H20.25V9C20.25 9.66797 19.9102 10.1191 19.1953 10.5703C18.4805 11.0215 17.4346 11.3584 16.3594 11.5781C14.209 12.0146 12 12 12 12C9.60059 12 7.43262 11.5957 5.92969 10.9688C5.17676 10.6553 4.59961 10.2656 4.24219 9.91406C3.88477 9.5625 3.75 9.27539 3.75 9C3.75 7.89258 4.47363 7.01953 5.95312 6.32812C7.43262 5.63672 9.59473 5.25 12 5.25C14.4053 5.25 15.7764 5.63672 16.4766 6.04688C17.1768 6.45703 17.25 6.81152 17.25 7.05469C17.25 7.40039 17.1738 7.63184 16.9922 7.85156C16.8105 8.07129 16.5029 8.28223 16.0547 8.46094C15.1582 8.81836 13.7168 9 12 9C12 9 10.9248 8.99707 9.89062 8.78906C9.375 8.68359 8.87695 8.51953 8.57812 8.34375C8.34961 8.20898 8.34375 8.14453 8.32031 8.0625C8.46387 7.97754 8.74805 7.87207 9.11719 7.78125C9.87598 7.59668 10.96 7.48535 12 7.5V6C10.8516 5.98242 9.68555 6.07617 8.74219 6.30469C8.27051 6.41895 7.86328 6.57422 7.5 6.79688C7.13672 7.01953 6.75 7.40918 6.75 7.96875C6.75 8.72754 7.2832 9.31055 7.82812 9.63281C8.37305 9.95508 9 10.1191 9.60938 10.2422C10.8252 10.4883 12 10.5 12 10.5C13.8135 10.5 15.375 10.3301 16.5938 9.84375C17.2031 9.60059 17.748 9.28418 18.1406 8.8125C18.5332 8.34082 18.75 7.70801 18.75 7.05469C18.75 6.2959 18.3076 5.37891 17.25 4.75781C16.1924 4.13672 14.5635 3.75 12 3.75ZM3.75 11.4609C4.20703 11.8008 4.73438 12.0967 5.34375 12.3516C7.09863 13.0811 9.43066 13.5 12 13.5C12 13.5 14.291 13.5322 16.6406 13.0547C17.8154 12.8174 19.0195 12.4482 19.9922 11.8359C20.0801 11.7803 20.165 11.71 20.25 11.6484V15.75C20.25 16.0254 20.1152 16.3125 19.7578 16.6641C19.5176 16.9014 19.1777 17.1533 18.75 17.3906V14.25H17.25V18C16.7842 18.1406 16.2891 18.2666 15.75 18.375V16.5H14.25V18.6094C13.7637 18.6621 13.2686 18.709 12.75 18.7266V15H11.25V18.7266C10.7344 18.709 10.2363 18.6621 9.75 18.6094V16.5H8.25V18.3984C7.70215 18.293 7.21582 18.1494 6.75 18V14.25H5.25V17.3906C4.82227 17.1533 4.48242 16.9014 4.24219 16.6641C3.88477 16.3125 3.75 16.0254 3.75 15.75V11.4609Z" fill="white"/>
</g>
</svg>
