<svg width="20" height="20" viewBox="0 0 20 20" fill="none" xmlns="http://www.w3.org/2000/svg">
<path d="M15.7736 6.01727L15.7736 6.01726C15.9652 5.82563 15.9652 5.515 15.7736 5.3234L15.7736 5.32338C15.5819 5.13182 15.2714 5.13181 15.0798 5.32339L15.0798 5.3234L7.08767 13.3155C7.08766 13.3155 7.08766 13.3155 7.08766 13.3155C6.88715 13.516 6.62111 13.6262 6.3376 13.6262C6.05407 13.6262 5.788 13.516 5.58755 13.3155C5.38707 13.115 5.27686 12.849 5.27686 12.5654C5.27686 12.2819 5.38708 12.0158 5.58754 11.8154L13.5796 3.82328C14.4138 2.98906 15.9294 3.10602 16.9602 4.1367C17.465 4.6415 17.7684 5.27874 17.8185 5.9295C17.8668 6.55782 17.6711 7.11982 17.2737 7.51723L17.3444 7.58794L17.2737 7.51723L14.4529 10.338C14.4521 10.3388 14.4514 10.3396 14.4506 10.3404L9.28157 15.5094C8.49509 16.2959 7.44987 16.7288 6.3376 16.7288C5.22533 16.7288 4.18011 16.2959 3.39363 15.5094L3.32292 15.5801L3.39363 15.5094C2.60715 14.723 2.17422 13.6777 2.17422 12.5654C2.17422 11.4532 2.60715 10.4079 3.39363 9.62147L9.66194 3.35316L9.66195 3.35315C9.85353 3.16153 9.85354 2.85089 9.66194 2.65929C9.47036 2.46771 9.15971 2.46769 8.96815 2.65929C8.96815 2.6593 8.96815 2.6593 8.96814 2.6593L2.69977 8.92768C1.72824 9.89921 1.19297 11.1915 1.19297 12.5654C1.19297 13.9394 1.72828 15.2316 2.69984 16.2032C3.67141 17.1747 4.96361 17.7101 6.3376 17.7101C7.71159 17.7101 9.00383 17.1748 9.97543 16.2032L15.1468 11.0319L15.1493 11.0292L17.9675 8.2111C18.574 7.60456 18.867 6.76601 18.7968 5.85428C18.7285 4.96637 18.3216 4.11043 17.654 3.44283L17.5833 3.51354L17.654 3.44283C16.9128 2.70164 15.9635 2.31168 15.0503 2.29326C14.2442 2.277 13.4647 2.55055 12.8858 3.12942L12.9565 3.20013L12.8858 3.12942L4.89375 11.1216C4.50821 11.5071 4.29561 12.0202 4.29561 12.5654C4.29561 13.1106 4.50821 13.6237 4.89375 14.0093C5.27926 14.3948 5.79236 14.6074 6.3376 14.6074C6.88284 14.6074 7.39595 14.3948 7.78145 14.0093L15.7736 6.01727ZM14.4526 10.3384L14.4522 10.3388C14.4524 10.3386 14.4527 10.3383 14.4529 10.338L14.4526 10.3384ZM15.1528 11.0254C15.1531 11.0251 15.1528 11.0255 15.152 11.0263L15.1528 11.0254ZM14.4258 10.4295C14.4258 10.4296 14.4258 10.4293 14.4256 10.4287L14.4257 10.4287L14.4258 10.4293L14.4258 10.4294L14.4258 10.4295L14.4258 10.4295Z" fill="black" stroke="black" stroke-width="0.2"/>
</svg>
