<svg xmlns="http://www.w3.org/2000/svg" width="48" height="48" viewBox="0 0 48 48" fill="none"><path fill-rule="evenodd" clip-rule="evenodd" d="M24 46C36.1503 46 46 36.1503 46 24C46 11.8497 36.1503 2 24 2C11.8497 2 2 11.8497 2 24C2 36.1503 11.8497 46 24 46ZM24 48C37.2548 48 48 37.2548 48 24C48 10.7452 37.2548 0 24 0C10.7452 0 0 10.7452 0 24C0 37.2548 10.7452 48 24 48Z" fill="white" fill-opacity="0.16" /> <path class="path_heart" d="M25.3911 32.0364L25.3915 32.036L32.4212 24.9859L32.4215 24.9857C32.4404 24.9683 32.4651 24.9452 32.4948 24.9166L32.193 24.6036L32.4948 24.9166C32.554 24.8595 32.6336 24.78 32.7266 24.6801C32.9115 24.4814 33.156 24.1953 33.4014 23.837C33.8791 23.1398 34.4348 22.0607 34.4348 20.7609C34.4348 17.3726 31.6618 14.5652 28.2391 14.5652C26.3351 14.5652 24.9078 15.3489 24 16.0432C23.0922 15.3489 21.6649 14.5652 19.7609 14.5652C16.3382 14.5652 13.5652 17.3726 13.5652 20.7609C13.5652 22.0795 14.1578 23.151 14.6024 23.8121C14.8403 24.1658 15.0792 24.4535 15.2592 24.6538C15.3498 24.7546 15.4272 24.8353 15.4845 24.893C15.5132 24.922 15.537 24.9453 15.555 24.9627L15.5565 24.9641L15.5678 24.975L22.6076 32.0351L22.6081 32.0355L23.6926 33.12L24 33.4275L24.3074 33.12L25.3911 32.0364Z" fill="white" stroke="white" stroke-width="0.869565" /> </svg>